<svg id="_01-smile" height="512" viewBox="0 0 48 48" width="512" xmlns="http://www.w3.org/2000/svg" data-name="01-smile"><circle cx="24" cy="24" fill="#ffd364" r="23"/><path d="m7 26c0 3.32 7.6 7 17 7s17-3.68 17-7a12.636 12.636 0 0 1 -5.6 10.38 19.76 19.76 0 0 1 -22.8 0 12.636 12.636 0 0 1 -5.6-10.38z" fill="#ae2d4c"/><path d="m41 26c0 3.32-7.6 7-17 7s-17-3.68-17-7c1 1 8 2 17 2s16-1 17-2z" fill="#f6fafd"/><g fill="#273941"><ellipse cx="33" cy="18" rx="3" ry="4"/><ellipse cx="15" cy="18" rx="3" ry="4"/><ellipse cx="33" cy="18" rx="2" ry="3"/><ellipse cx="15" cy="18" rx="2" ry="3"/></g><circle cx="34" cy="17" fill="#f6fafd" r="1"/><circle cx="16" cy="17" fill="#f6fafd" r="1"/><path d="m24 35c7.962 0 14.613-2.641 16.468-5.466a12.089 12.089 0 0 0 .532-3.534c0 3.32-7.6 7-17 7s-17-3.68-17-7a12.089 12.089 0 0 0 .532 3.534c1.855 2.825 8.506 5.466 16.468 5.466z" fill="#8a293d"/><path d="m39.475 28.655a3.775 3.775 0 0 0 1.525-2.655c-1 1-8 2-17 2s-16-1-17-2a3.775 3.775 0 0 0 1.525 2.655c2.698.739 8.475 1.345 15.475 1.345s12.777-.606 15.475-1.345z" fill="#ededed"/><path d="m24 4c12.15 0 22 8.507 22 19h.975a23 23 0 0 0 -45.95 0h.975c0-10.493 9.85-19 22-19z" fill="#ffeb95"/><path d="m46 23c0 10.493-9.85 19-22 19s-22-8.507-22-19h-.975c-.014.332-.025.665-.025 1a23 23 0 0 0 46 0c0-.335-.011-.668-.025-1z" fill="#ffb839"/><ellipse cx="37" cy="9" fill="#f6fafd" rx=".825" ry="1.148" transform="matrix(.707 -.707 .707 .707 4.48 28.81)"/><ellipse cx="30.746" cy="4.5" fill="#f6fafd" rx=".413" ry=".574" transform="matrix(.707 -.707 .707 .707 5.829 23.067)"/><ellipse cx="34" cy="7" fill="#f6fafd" rx="1.65" ry="2.297" transform="matrix(.707 -.707 .707 .707 5.015 26.102)"/><path d="m24 0a24 24 0 1 0 24 24 24.028 24.028 0 0 0 -24-24zm0 46a22 22 0 1 1 22-22 22.025 22.025 0 0 1 -22 22z" fill="#141e21"/><path d="m33 22c1.682 0 3-1.757 3-4s-1.318-4-3-4-3 1.757-3 4 1.318 4 3 4zm0-6c.4 0 1 .8 1 2s-.6 2-1 2-1-.8-1-2 .6-2 1-2z" fill="#141e21"/><path d="m15 22c1.682 0 3-1.757 3-4s-1.318-4-3-4-3 1.757-3 4 1.318 4 3 4zm0-6c.4 0 1 .8 1 2s-.6 2-1 2-1-.8-1-2 .6-2 1-2z" fill="#141e21"/><path d="m41.389 25.071a.99.99 0 0 0 -1.084.211c-.713.58-6.396 1.718-16.305 1.718-9.893 0-15.573-1.134-16.3-1.715a1 1 0 0 0 -1.7.715 13.679 13.679 0 0 0 6.014 11.19 21.174 21.174 0 0 0 11.986 3.81 21.173 21.173 0 0 0 11.987-3.811 13.677 13.677 0 0 0 6.013-11.189 1 1 0 0 0 -.611-.929zm-2.421 2.729c-2.211 2.076-7.823 4.2-14.968 4.2s-12.757-2.124-14.968-4.2a78.126 78.126 0 0 0 14.968 1.2 78.126 78.126 0 0 0 14.968-1.2zm-4.154 7.773a18.757 18.757 0 0 1 -21.626 0 12.635 12.635 0 0 1 -4.4-5.439c3.246 2.278 8.971 3.866 15.212 3.866s11.965-1.588 15.214-3.869a12.649 12.649 0 0 1 -4.4 5.438z" fill="#141e21"/></svg>